<svg
  class="icon"
  viewBox="0 0 1024 1024"
  version="1.1"
  xmlns="http://www.w3.org/2000/svg"
  width="180"
  height="180"
>
  <path
    d="M222.965199 541.171543s-145.542347-71.903911-49.512781-244.410225 16.714506-224.542039-15.768402-268.062827c0 0 201.993225-86.726209 292.346166 42.417 105.175239 149.484447-227.064983 470.056052-227.064983 470.056052z"
    fill="#FFE08F"
  />
  <path
    d="M295.184478 721.562057s-160.364644-75.37296-49.828149-245.987065c105.332923-162.729905 205.146905-179.759778 215.396366-389.637203 34.375115 17.345242 135.608254 54.874038 174.871574 204.989221C669.999384 421.962427 374.026486 669.684016 295.184478 721.562057z"
    fill="#FFD463"
  />
  <path
    d="M491.028026 526.664613c-91.299045 94.61041-262.859255 161.626116-193.005236 261.440099 94.61041 134.66215 536.125654-155.634124 520.357253-331.136434S653.75793 297.392054 653.75793 297.392054A893.122267 893.122267 0 0 1 491.028026 526.664613z"
    fill="#FFBC0D"
  />
  <path
    d="M449.084078 730.234678q105.017555-56.766246 141.915614-83.099476t129.931629-108.171235a41.943948 41.943948 0 0 1 59.446874 4.415152 43.520788 43.520788 0 0 1 9.776409 19.079766l91.772098 409.032338a41.786264 41.786264 0 0 1-15.768402 43.520788l-2.207576 1.57684a41.786264 41.786264 0 0 1-44.939945 1.57684L449.084078 804.346166a43.20542 43.20542 0 0 1-15.768402-58.027718 40.997844 40.997844 0 0 1 15.768402-15.768402z"
    fill="#DB0006"
  />
</svg>
