<?xml version="1.0" standalone="no"?><!DOCTYPE svg PUBLIC "-//W3C//DTD SVG 1.1//EN" "http://www.w3.org/Graphics/SVG/1.1/DTD/svg11.dtd"><svg t="1712576852355" class="icon" viewBox="0 0 1024 1024" version="1.1" xmlns="http://www.w3.org/2000/svg" p-id="35604" xmlns:xlink="http://www.w3.org/1999/xlink" width="200" height="200"><path d="M28.672 77.2096h90.112v598.016h356.352v73.728H28.672v-671.744z m727.4496 162.2016c-92.16-1.2288-184.32 57.344-212.992 146.2272-40.96 102.4-22.1184 231.0144 58.1632 309.248 77.824 64.7168 194.9696 69.632 282.624 23.7568 60.2112-31.9488 98.304-95.4368 106.496-162.2016 10.6496-69.632 5.3248-145.8176-28.672-208.896-40.1408-67.1744-118.784-110.592-196.608-107.7248l-9.0112-1.2288z m8.192 71.2704c67.584 0 128.2048 51.6096 139.264 117.9648 20.48 74.9568 8.192 166.7072-53.248 219.5456-57.344 46.6944-149.504 40.1408-196.608-17.6128-57.344-61.44-57.344-155.648-27.8528-229.376 20.48-53.248 74.9568-91.3408 132.3008-90.112h7.3728z" fill="" p-id="35605"></path><path d="M28.672 844.3904h966.656v102.4H28.672v-102.4z" fill="#096DD9" p-id="35606" data-spm-anchor-id="a313x.search_index.0.i40.7d473a81OS7FzA" class="selected"></path></svg>