<?xml version="1.0" standalone="no"?><!DOCTYPE svg PUBLIC "-//W3C//DTD SVG 1.1//EN" "http://www.w3.org/Graphics/SVG/1.1/DTD/svg11.dtd"><svg t="1712576768696" class="icon" viewBox="0 0 1024 1024" version="1.1" xmlns="http://www.w3.org/2000/svg" p-id="33293" xmlns:xlink="http://www.w3.org/1999/xlink" width="200" height="200"><path d="M807.594667 604.970667c-9.130667 3.84-18.218667 5.76-27.434667 5.76-14.592 0-27.733333-2.517333-39.381333-7.594667a83.754667 83.754667 0 0 1-29.44-20.949333c-7.978667-8.917333-14.165333-19.328-18.432-31.36s-6.357333-25.002667-6.357334-38.869334c0-14.293333 2.133333-27.434667 6.357334-39.68 4.266667-12.245333 10.325333-22.869333 18.304-31.872a83.626667 83.626667 0 0 1 29.44-21.376 96 96 0 0 1 39.381333-7.808c9.813333 0 19.242667 1.536 28.330667 4.437334 9.130667 2.944 17.408 7.296 24.789333 12.970666s13.482667 12.757333 18.218667 21.162667a72.533333 72.533333 0 0 1 8.789333 28.842667h-39.893333c-2.517333-10.624-7.296-18.645333-14.378667-23.978667a41.514667 41.514667 0 0 0-25.898667-7.978667c-9.429333 0-17.408 1.834667-23.978666 5.461334s-11.946667 8.490667-16 14.677333c-4.053333 6.186667-7.082667 13.141333-8.917334 20.949333s-2.816 15.872-2.816 24.277334c0 7.978667 0.896 15.786667 2.816 23.381333 1.834667 7.594667 4.864 14.378667 8.917334 20.437333 4.053333 6.058667 9.429333 10.922667 16 14.592s14.592 5.461333 23.978666 5.461334c13.866667 0 24.618667-3.541333 32.170667-10.538667 7.594667-6.997333 11.946667-17.109333 13.269333-30.464h-42.112V503.466667h79.872v102.954666h-26.624l-4.266666-21.546666a61.610667 61.610667 0 0 1-24.704 20.096z m123.562666-188.970667v154.965333H1024v35.328h-134.613333V416h41.770666zM118.826667 511.957333c0-30.250667 14.634667-58.709333 40.448-83.712l47.317333 180.096h32.597333l45.866667-162.773333 45.226667 162.773333h32.682666l56.362667-207.189333h-36.693333l-36.736 158.933333-44.330667-158.976H267.946667l-44.330667 158.933334-35.84-154.965334c63.530667-43.733333 165.034667-72.106667 279.381333-72.106666 107.178667 0 203.264 22.570667 267.136 61.653333-69.632-65.493333-194.773333-111.445333-337.706666-111.530667C177.536 283.093333 0 385.536 0 511.957333s177.536 228.992 396.501333 228.992c142.421333 0 267.136-45.866667 337.066667-110.933333-63.872 38.869333-159.616 60.928-266.410667 60.928-192.426667-0.042667-348.330667-80.085333-348.330666-178.986667z m392.277333-23.594666a50.517333 50.517333 0 0 0-18.944-16.384 58.794667 58.794667 0 0 0-26.538667-5.76c-11.136 0-21.162667 2.005333-29.866666 5.973333a56.021333 56.021333 0 0 0-20.864 16.512c-10.410667 13.269333-15.872 32-15.872 54.144 0 9.813333 1.408 19.114667 4.138666 27.434667a64 64 0 0 0 12.16 21.973333c11.136 12.970667 27.008 19.84 45.952 19.84 9.941333 0 18.005333-1.024 24.789334-3.157333 5.888-1.834667 9.813333-4.266667 13.056-6.357334a57.898667 57.898667 0 0 0 18.944-20.864c3.84-7.082667 5.76-13.781333 6.186666-17.194666l0.298667-2.346667h-27.008l-0.085333 1.92c-0.725333 8.789333-12.245333 24.490667-32.810667 24.490667-29.354667 0-36.352-21.248-36.864-39.978667h98.389333v-2.133333a134.4 134.4 0 0 0-3.626666-32.682667 78.506667 78.506667 0 0 0-11.434667-25.429333z m-48.597333 2.133333c21.76 0 33.408 11.733333 35.541333 35.84h-70.442667c1.066667-19.541333 16.554667-35.84 34.901334-35.84z m199.594666 17.706667a67.2 67.2 0 0 0-11.434666-21.973334 53.333333 53.333333 0 0 0-18.645334-14.762666 58.026667 58.026667 0 0 0-25.002666-5.376 48.682667 48.682667 0 0 0-22.656 5.461333 46.933333 46.933333 0 0 0-14.762667 11.946667v-63.573334h-26.922667v188.288h25.6v-12.842666a41.130667 41.130667 0 0 0 9.002667 8.789333c7.296 5.248 16.298667 7.893333 26.709333 7.893333 11.221333 0 21.376-2.517333 29.866667-7.509333 7.594667-4.437333 14.08-10.837333 19.114667-18.944a82.346667 82.346667 0 0 0 10.026666-24.917333 113.493333 113.493333 0 0 0 2.944-25.728 84.736 84.736 0 0 0-3.84-26.752z m-24.192 30.592c0 14.762667-2.944 27.136-8.618666 35.84a29.098667 29.098667 0 0 1-25.813334 13.866666c-16.085333 0-34.944-11.221333-34.944-43.008 0-15.189333 1.92-26.922667 5.76-35.84 5.546667-12.842667 14.976-19.029333 28.629334-19.029333 14.592 0 24.405333 5.674667 29.866666 17.493333 4.522667 9.685333 5.12 21.546667 5.12 30.677334z" p-id="33294" fill="#096DD9"></path></svg>