<svg
  class="icon"
  viewBox="0 0 1024 1024"
  version="1.1"
  xmlns="http://www.w3.org/2000/svg"
  width="200"
  height="200"
>
  <path
    d="M959.4 277c-0.1-1.9-0.3-3.7-0.5-5.6-1.3-13.6-3.8-27-7.6-40.2-0.6-2.2-1.3-4.4-2-6.5-0.9-2.9-2-5.8-3-8.7-0.3-0.9-0.7-1.8-1-2.7-0.9-2.4-1.9-4.7-2.9-7.1-0.5-1.2-1-2.4-1.6-3.7-0.8-1.8-1.6-3.5-2.4-5.3-1.6-3.3-3.2-6.5-4.9-9.7-0.8-1.4-1.5-2.8-2.3-4.2-0.8-1.5-1.7-3-2.6-4.5-1.2-1.9-2.3-3.8-3.6-5.7-1.1-1.6-2.1-3.3-3.2-4.9-1.4-2-2.8-4-4.2-5.9-6.5-8.9-13.8-17.4-21.9-25.4l-8.9-8.9c-3.9-3.9-7.8-7.5-11.9-11-2.4-2-4.8-4-7.2-5.9-2.1-1.7-4.2-3.3-6.3-4.8-3-2.2-6-4.3-9-6.3s-6.1-3.9-9.3-5.8C808.5 74.1 769.6 64 730.8 64c-38.9 0-77.7 10.1-112.2 30.3-3.1 1.8-6.2 3.8-9.3 5.8s-6.1 4.1-9 6.3c-1.5 1.1-3 2.2-4.4 3.3-4.4 3.4-8.7 7-12.8 10.7-2.8 2.5-5.5 5.1-8.2 7.8l-79.3 79.1-26.1 26-107.3 107-26.1 26-123.6 123c-25 24.9-25 65.6 0 90.5l76.7 76.5-8.2-8.3L82.7 845.6c-20.3 20.2-24.1 50.9-11.4 75 0.7 1.3 1.4 2.6 2.2 3.8 2.6 4.1 5.6 8.1 9.2 11.6l5.4 5.4c12.4 12.4 28.9 18.7 45.4 18.7 16.4 0 32.9-6.2 45.4-18.7l198.2-197.6 65.5 65.3c6.7 6.7 14.6 11.6 23.1 14.7l1.8 0.6c1.5 0.5 3 1 4.6 1.3 1.2 0.3 2.4 0.6 3.6 0.8 4 0.8 8.1 1.2 12.2 1.2 16.4 0 32.9-6.2 45.4-18.7l127.1-126.6 27.9-27.8 105.4-105.1 27.8-27.6 74.1-73.9c4-4 7.8-8.1 11.5-12.4 3.6-4.2 7.1-8.6 10.3-13 1.7-2.4 3.4-4.8 5-7.2l2.4-3.6 3.6-5.7c0.9-1.5 1.8-3 2.6-4.5 1.3-2.2 2.5-4.5 3.7-6.8 0.8-1.6 1.7-3.2 2.4-4.8 1.6-3.2 3.1-6.5 4.5-9.8s2.8-6.6 4-9.9c1.3-3.3 2.4-6.7 3.5-10.1 0.5-1.7 1.1-3.4 1.6-5.1 4.5-15.3 7.3-31 8.5-46.9 0.9-10.3 1-20.8 0.2-31.2zM156.2 918.8c-6 6-14 9.3-22.7 9.3-8.6 0-16.6-3.3-22.7-9.3l-5.4-5.4c-6-6-9.3-14-9.3-22.6s3.3-16.6 9.3-22.6l198.2-197.6 50.8 50.7-198.2 197.5z m354.5-132.3c-6 6-14 9.3-22.7 9.3s-16.6-3.3-22.7-9.3L235.1 557.2c-6-6-9.3-14-9.3-22.6s3.3-16.6 9.3-22.6l103.5-103.2c0.1 1.3 0.3 2.6 0.4 4 6.1 60.4 17.7 78.3 26 86.5 8.2 8.2 26.1 19.8 86.7 25.9 31.4 3.2 59.3 3.3 60.5 3.3 0.3 0 27.8 0.2 57.6 3.2 53.3 5.4 65.2 14.8 67 16.6s11.2 13.7 16.6 66.8c1 9.6 1.7 19 2.1 27.2L510.7 786.5z m174.7-174.1v-0.4c-6.1-60.4-17.7-78.3-26-86.5-8.2-8.2-26.1-19.8-86.7-25.9-31.4-3.2-59.3-3.3-60.5-3.3-0.3 0-27.8-0.2-57.6-3.2-53.3-5.4-65.2-14.8-67-16.6-1.8-1.8-11.2-13.7-16.6-66.8-1.1-11.1-1.8-21.8-2.3-30.9l103.3-103c0.1 1.3 0.3 2.6 0.4 4 6.1 60.4 17.7 78.3 26 86.5 8.2 8.2 26.1 19.8 86.7 25.9 31.4 3.2 59.3 3.3 60.5 3.3 0.3 0 27.8 0.2 57.6 3.2 53.3 5.4 65.2 14.8 67 16.6 1.8 1.8 11.2 13.7 16.6 66.8 1 9.6 1.7 19 2.1 27.2L685.4 612.4z m228.8-249c-9.4 23.3-23.3 44.2-41.2 62l-54.2 54.1v-0.4c-6.1-60.4-17.7-78.3-26-86.5-8.2-8.2-26.1-19.8-86.7-25.9-31.4-3.2-59.3-3.3-60.5-3.3-0.3 0-27.8-0.2-57.6-3.2-53.3-5.4-65.2-14.8-67-16.6-1.8-1.8-11.2-13.7-16.6-66.8-1.1-11.1-1.8-21.8-2.3-30.9l95.5-95.2c17.9-17.9 38.8-31.7 62.2-41.1 22.6-9.1 46.5-13.7 71.1-13.7s48.5 4.6 71.1 13.7c23.4 9.4 44.3 23.2 62.2 41.1l8.9 8.9c17.9 17.9 31.8 38.7 41.2 62 9.1 22.5 13.7 46.4 13.7 70.9-0.1 24.5-4.7 48.4-13.8 70.9zM807.7 178.1c-3.1 0-6.2-0.9-8.9-2.7-3.9-2.7-8.1-5.1-12.2-7.3-7.8-4.1-10.8-13.8-6.7-21.6 4.1-7.8 13.8-10.8 21.6-6.7 5.2 2.7 10.3 5.8 15.2 9.1 7.3 4.9 9.3 14.9 4.3 22.2-3.1 4.5-8.1 7-13.3 7z m38.8 208.3c-4.1 0-8.2-1.6-11.3-4.7-6.2-6.2-6.2-16.4 0-22.6 38.5-38.5 37.3-105.7-2.7-153-5.7-6.7-4.9-16.8 1.9-22.5 6.7-5.7 16.8-4.9 22.5 1.9 24.3 28.8 38 64.5 38.5 100.6 0.5 36.9-12.9 70.9-37.6 95.7-3.1 3.1-7.2 4.6-11.3 4.6z"
    fill="#000000"
  />
</svg>
